<?xml version="1.0" encoding="utf-8"?>
<!-- Generator: Adobe Illustrator 25.4.1, SVG Export Plug-In . SVG Version: 6.00 Build 0)  -->
<svg version="1.1" id="Layer_1" xmlns="http://www.w3.org/2000/svg" xmlns:xlink="http://www.w3.org/1999/xlink" x="0px" y="0px"
	 viewBox="0 0 64 64" style="enable-background:new 0 0 64 64;" xml:space="preserve">
<style type="text/css">
	.st0{fill:#001331;}
</style>
<g id="Asset">
	<g id="IconSimple">
		<g id="Type_x3D_Persons">
			<g id="Vector">
				<path class="st0" d="M31.8,9c0.2,0,0.6,0,0.8,0c2.1,0.1,4,1,5.3,2.5c1.3,1.5,2,3.4,1.9,5.4c-0.1,2.3-1.3,4.4-3.3,5.7
					c-0.2,0.1-0.4,0.3-0.7,0.4c-0.2,0.1-0.6,0.3-0.8,0.5c-0.3,0.3-0.3,1,0.2,1.1c0.5,0.1,0.9,0.1,1.4,0.2c1.8,0.3,3.5,1.1,4.8,2.4
					c2.1,2.1,2.8,4.9,2.8,7.7l0,12.4c0,0.9,0,2-0.2,2.8c-0.3,1.1-0.8,2.1-1.7,2.9c-1.1,1-2.5,1.8-4,1.8c-0.7,0-1.6,0-2.3,0l-7.7,0
					c-1.2,0-2.8,0.1-3.9-0.2c-1.1-0.3-2.2-0.9-2.9-1.7c-1.3-1.3-1.8-2.7-1.8-4.5l0-11.8c0-1.7-0.1-3.3,0.4-5c0.9-2.9,3.1-5.4,6-6.4
					c0.5-0.2,1.1-0.3,1.6-0.4c0.3,0,0.6-0.1,0.8-0.1c0.3-0.1,0.6-0.3,0.7-0.6c0-0.2,0-0.4-0.2-0.6c-0.1-0.1-0.3-0.2-0.4-0.3
					c-0.6-0.3-1.1-0.6-1.6-1c-1.5-1.3-2.5-3.1-2.7-5.1c-0.2-2,0.5-3.9,1.8-5.4C27.8,10.1,29.7,9.2,31.8,9z"/>
				<path class="st0" d="M14.7,12.8c1.3-0.1,3,0.3,4.1,1.1c1.6,1,2.7,2.6,3.1,4.4c0.5,2.6-0.5,5.3-2.7,6.8c-0.3,0.2-0.7,0.4-0.9,0.7
					c-0.2,0.2-0.1,0.6,0.2,0.8c0.3,0.2,0.8,0.2,1.2,0.3c0.5,0.1,0.9,0.3,1.4,0.5c-1.1,1.3-1.9,3-2.3,4.7c-0.4,1.5-0.3,2.9-0.3,4.5
					l0,13l-5.1,0c-0.9,0-2,0-2.9,0c-1.7-0.2-3.1-0.9-4.3-2.1c-0.9-0.9-1.5-2-1.8-3.2C4,43.4,4,42.5,4,41.6l0-2.1c0-1.8,0-3.6,0-5.4
					c0.1-3.6,3-6.8,6.6-7.4c0.5-0.1,1.3,0,1.3-0.7c0-0.1-0.1-0.3-0.2-0.4c-0.4-0.3-0.8-0.5-1.2-0.9c-1.4-1.2-2.2-2.8-2.4-4.6
					C7.9,16.3,10.8,13.1,14.7,12.8z"/>
				<path class="st0" d="M48.7,12.8c1.4-0.1,3,0.4,4.1,1.1c1.6,1,2.6,2.6,3,4.4c0.5,2.7-0.7,5.5-3,6.9c-0.3,0.2-0.7,0.4-0.6,0.9
					c0.1,0.6,1,0.5,1.4,0.5c3,0.5,5.5,2.6,6.2,5.6c0.3,1.3,0.2,2.3,0.2,3.6l0,5.8c0,0.9,0,1.7-0.1,2.6c-0.3,2-1.7,3.8-3.6,4.6
					c-0.5,0.2-1,0.4-1.6,0.5c-1,0.2-2.6,0.1-3.6,0.1l-5,0l0-13.5c0-1.5,0-2.9-0.3-4.4c-0.4-1.8-0.9-3-2-4.5c0.7-0.3,1.3-0.4,2-0.6
					c0.4-0.1,0.5-0.6,0.2-0.9c-0.2-0.2-0.6-0.3-0.8-0.5C39.6,21.5,41.9,13.2,48.7,12.8z"/>
			</g>
		</g>
	</g>
</g>
</svg>
