<?xml version="1.0" encoding="utf-8"?>
<!-- Generator: Adobe Illustrator 25.4.1, SVG Export Plug-In . SVG Version: 6.00 Build 0)  -->
<svg version="1.1" id="Layer_1" xmlns="http://www.w3.org/2000/svg" xmlns:xlink="http://www.w3.org/1999/xlink" x="0px" y="0px"
	 viewBox="0 0 64 64" style="enable-background:new 0 0 64 64;" xml:space="preserve">
<style type="text/css">
	.st0{fill:#001331;}
</style>
<g id="Asset">
	<g id="IconSimple">
		<g id="Type_x3D_User">
			<g id="Vector">
				<path class="st0" d="M28.1,30.1c0.1,0,0.3,0,0.4,0c2,0,4,0,6,0c0.7,0,1.3,0,1.9,0.1c3.4,0.3,6.6,1.9,9,4.4
					c2.8,2.9,4.5,6.9,4.5,11l0,3.7c0,0.6,0,2.1-0.1,2.7c-0.1,0.5-0.3,1-0.7,1.3c-0.9,0.9-1.6,0.8-2.7,0.8H18.2
					c-1.2,0-2.3,0.2-3.3-0.7c-1-0.9-0.9-2.1-0.9-3.4c0.1-1.9-0.1-4,0.1-5.9c0.3-3.3,1.6-6.4,3.7-8.8C20.5,32.1,24.1,30.3,28.1,30.1z
					"/>
				<path class="st0" d="M31.8,8c5.6-0.1,10.2,4.4,10.3,10.2c0.1,5.8-4.3,10.6-9.8,10.7c-5.6,0.1-10.2-4.4-10.3-10.2
					C21.8,12.9,26.2,8.1,31.8,8z"/>
			</g>
		</g>
	</g>
</g>
</svg>
