<?xml version="1.0" encoding="utf-8"?>
<!-- Generator: Adobe Illustrator 25.4.1, SVG Export Plug-In . SVG Version: 6.00 Build 0)  -->
<svg version="1.1" id="Layer_1" xmlns="http://www.w3.org/2000/svg" xmlns:xlink="http://www.w3.org/1999/xlink" x="0px" y="0px"
	 viewBox="0 0 64 64" style="enable-background:new 0 0 64 64;" xml:space="preserve">
<style type="text/css">
	.st0{fill:#001331;}
</style>
<g id="IconSimple">
	<g id="Type_x3D_Calendar">
		<g id="Vector">
			<path class="st0" d="M19.4,11.1c-0.3-0.8-1-1.1-1.9-1.1c-1.7,0.3-1.6,1.7-1.6,3c0,0.2,0,0.4,0,0.6l-2.3,0h0c-1.7,0-2.9,0-4.2,1.3
				C8,16.3,8,17.7,8,19.4c0,0.2,0,0.3,0,0.5l0,3l48,0l0-3.1c0-0.1,0-0.2,0-0.3c0-0.5,0-1,0-1.6c-0.1-2.2-1.9-4.2-4.2-4.3
				c-0.4,0-0.8,0-1.2,0c-0.1,0-0.2,0-0.3,0l-2.6,0l0-1.1c0-0.1,0-0.1,0-0.2c0-0.7,0-1.3-0.5-1.8c-0.3-0.3-0.8-0.5-1.3-0.5
				c-0.5,0-1,0.2-1.3,0.5c-0.5,0.5-0.5,1.1-0.5,1.7c0,0,0,0.1,0,0.1l0,1.2l-24.5,0l0-1.1c0-0.1,0-0.1,0-0.2
				C19.6,11.9,19.6,11.5,19.4,11.1z"/>
			<path class="st0" d="M8,24h48v26c0,2.2-1.8,4-4,4H12c-2.2,0-4-1.8-4-4V24z"/>
		</g>
	</g>
</g>
</svg>
