<?xml version="1.0" encoding="utf-8"?>
<!-- Generator: Adobe Illustrator 25.4.1, SVG Export Plug-In . SVG Version: 6.00 Build 0)  -->
<svg version="1.1" id="Layer_1" xmlns="http://www.w3.org/2000/svg" xmlns:xlink="http://www.w3.org/1999/xlink" x="0px" y="0px"
	 viewBox="0 0 64 64" style="enable-background:new 0 0 64 64;" xml:space="preserve">
<style type="text/css">
	.st0{fill-rule:evenodd;clip-rule:evenodd;fill:#001331;}
	.st1{fill:#001331;}
</style>
<g id="Asset">
	<g id="IconSimple">
		<g id="Type_x3D_Phonebook">
			<g id="Vector">
				<path class="st0" d="M45.1,9c1.5,0,2.6-0.1,3.8,1c0.8,0.7,1.3,1.8,1.4,2.9c0,0.8,0,1.9,0,2.7l0,34c0,1.7,0.1,2.7-1.1,4.1
					C47.7,55.3,46,55,44,55H19.6l0-46l24.5,0C44.4,9,44.8,9,45.1,9z"/>
				<path class="st1" d="M16.3,9c0.5,0,1.8,0,2.4,0l0,46c-0.6,0-2,0-2.6,0c-1.1-0.1-2-0.7-2.7-1.6c-0.4-0.5-0.7-1.1-0.8-1.8
					c-0.1-0.6-0.1-1.5-0.1-2.1l0-4.8c0-0.3,0-0.8,0-1.1c0.1-0.1,0.1,0,0.2,0l1.5,0c0.9,0,1.6,0.1,2.3-0.6c0.8-0.8,0.8-2.1,0-2.9
					c-0.7-0.7-1.5-0.6-2.4-0.6l-1.6,0l0-7.1c0.7,0,2.6,0.1,3.2-0.1c0.3-0.1,0.6-0.3,0.8-0.5c0.4-0.4,0.6-0.9,0.6-1.4
					c0-0.6-0.2-1.1-0.6-1.5c-0.2-0.2-0.5-0.4-0.8-0.5c-0.5-0.1-2.6-0.1-3.2-0.1l0-7.1c0.6,0,2.6,0.1,3.1-0.1
					c0.3-0.1,0.6-0.3,0.9-0.5c0.8-0.8,0.8-2.1,0-2.9c-0.2-0.2-0.5-0.4-0.8-0.5c-0.5-0.1-2.6-0.1-3.2-0.1l0-2.6c0-0.7,0-1.6,0.1-2.3
					c0.1-0.6,0.4-1.2,0.8-1.7C14.3,9.6,15.2,9.1,16.3,9z"/>
				<path class="st1" d="M51.3,33.9c0.7,0,1.6-0.1,2.1,0.3c0.7,0.6,0.6,1.4,0.6,2.2l0,3.8c0,0.9,0.1,1.3-0.5,2
					c-0.6,0.6-1.5,0.5-2.3,0.5L51.3,33.9z"/>
				<path class="st1" d="M51.3,24c0.6,0,1.5-0.1,2.1,0.3c0.7,0.6,0.6,1.5,0.6,2.3l0,3.8c0,0.8,0.1,1.3-0.4,2
					c-0.6,0.6-1.5,0.5-2.3,0.5L51.3,24z"/>
				<path class="st1" d="M51.3,14.2c0.7,0,1.6-0.1,2.1,0.3c0.7,0.6,0.6,1.6,0.6,2.4l0,2.1c0,0.8,0,1.8,0,2.7c0,0.3-0.3,0.6-0.4,0.8
					l0,0c-0.6,0.6-1.4,0.5-2.2,0.4V14.2z"/>
				<path class="st1" d="M11,29.3c0.9,0,1.9,0,2.8,0c0.4,0,1.1,0,1.5,0c1.2,0.2,1.3,1.9,0,2.2l-2.9,0c-0.5,0-1.6,0.1-2-0.2
					c-0.3-0.2-0.4-0.4-0.5-0.7C9.9,29.9,10.3,29.4,11,29.3z"/>
				<path class="st1" d="M11,18c1.4,0,2.9,0,4.3,0c1.1,0,1.6,1.8,0.1,2.2l-2.8,0c-0.5,0-1.6,0.1-2-0.2c-0.3-0.2-0.4-0.4-0.5-0.7
					C9.9,18.7,10.3,18.2,11,18z"/>
				<path class="st1" d="M10.8,40.5c0.4-0.1,1.3,0,1.8,0c0.9,0,1.7,0,2.6,0c1.3,0,1.5,1.7,0.2,2.2c-0.5,0.1-4.4,0.1-4.7,0
					c-0.3-0.1-0.5-0.3-0.6-0.6c-0.1-0.3-0.1-0.6,0-0.8C10.3,40.8,10.5,40.6,10.8,40.5z"/>
			</g>
		</g>
	</g>
</g>
</svg>
