<svg width="64" height="64" viewBox="0 0 64 64" fill="none" xmlns="http://www.w3.org/2000/svg">
<rect width="64" height="64" fill="#1E1E1E"/>
<g id="Asset">
<path d="M-77 -245C-77 -246.105 -76.1046 -247 -75 -247H1077C1078.1 -247 1079 -246.105 1079 -245V563C1079 564.105 1078.1 565 1077 565H-75C-76.1046 565 -77 564.105 -77 563V-245Z" fill="white"/>
<g id="IconSimple">
<rect x="-15.5" y="-15.5" width="419" height="95" rx="4.5" stroke="#8A38F5" stroke-dasharray="10 5"/>
<g id="Type=User">
<g id="Vector">
<path d="M28.1452 30.0781C28.2832 30.067 28.4465 30.064 28.5862 30.0645C30.5823 30.0707 32.5793 30.0771 34.5752 30.066C35.2369 30.0624 35.857 30.0619 36.5171 30.1231C39.9081 30.4365 43.0867 31.9761 45.5023 34.4749C48.3502 37.3877 49.9648 41.3637 49.9881 45.5217L49.9908 49.1783C49.9919 49.821 50.0376 51.285 49.9143 51.8455C49.8055 52.3447 49.5654 52.8025 49.2207 53.1676C48.3655 54.0615 47.6103 53.9793 46.4902 53.979H18.2221C17.0129 53.979 15.8804 54.1866 14.9215 53.2968C13.9212 52.3681 13.9803 51.2035 14.0152 49.9271C14.068 47.9913 13.9144 45.977 14.0868 44.0595C14.3971 40.7857 15.6978 37.6992 17.8011 35.2455C20.5199 32.0536 24.0784 30.334 28.1452 30.0781Z" fill="#001331"/>
<path d="M31.7671 8.0028C37.3192 7.8704 41.9247 12.4497 42.0567 18.2344C42.189 24.019 37.798 28.8215 32.2462 28.9646C26.6871 29.1079 22.0705 24.5258 21.9381 18.7335C21.8057 12.9413 26.2078 8.13535 31.7671 8.0028Z" fill="#001331"/>
</g>
</g>
</g>
</g>
</svg>
