<svg width="64" height="64" viewBox="0 0 64 64" fill="none" xmlns="http://www.w3.org/2000/svg">
<rect width="64" height="64" fill="#1E1E1E"/>
<g id="Asset">
<path d="M-239 -245C-239 -246.105 -238.105 -247 -237 -247H915C916.105 -247 917 -246.105 917 -245V563C917 564.105 916.105 565 915 565H-237C-238.105 565 -239 564.105 -239 563V-245Z" fill="white"/>
<g id="IconSimple">
<rect x="-177.5" y="-15.5" width="419" height="95" rx="4.5" stroke="#8A38F5" stroke-dasharray="10 5"/>
<g id="Type=Persons">
<g id="Vector">
<path d="M31.8171 9.01619C32.0582 8.99607 32.4181 8.99658 32.6619 9.00749C34.713 9.10025 36.6394 10.0005 38.0059 11.5049C39.3497 12.9913 40.0459 14.9359 39.9446 16.9208C39.816 19.2659 38.6107 21.2819 36.6941 22.6562C36.4851 22.8031 36.2668 22.9368 36.0405 23.0566C35.7959 23.1858 35.4066 23.3499 35.2076 23.5347C34.8739 23.8445 34.9573 24.4902 35.4245 24.6416C35.8747 24.7738 36.3493 24.7457 36.8176 24.8322C38.6518 25.1708 40.2721 25.9267 41.6145 27.2347C43.7514 29.3168 44.3925 32.1038 44.4007 34.9734L44.4032 47.3657C44.403 48.265 44.4468 49.3502 44.2342 50.2069C43.96 51.3119 43.3858 52.3237 42.5714 53.1221C41.5203 54.168 40.0354 54.8873 38.5303 54.9694C37.7845 55.01 36.9729 54.987 36.2182 54.987L28.5304 54.9867C27.3216 54.9875 25.7727 55.0772 24.6416 54.7794C23.5715 54.4977 22.4764 53.8578 21.7057 53.077C20.3959 51.75 19.9197 50.3398 19.9106 48.5381L19.9094 36.746C19.9088 35.0026 19.854 33.4444 20.3593 31.7501C21.2338 28.8184 23.4319 26.362 26.3796 25.3077C26.9125 25.1141 27.4612 24.965 28.0197 24.8619C28.2848 24.8132 28.5803 24.7868 28.8276 24.7304C29.1709 24.6522 29.4726 24.4624 29.4946 24.0948C29.5087 23.8591 29.4777 23.6638 29.2944 23.4873C29.1698 23.3673 29.0252 23.3102 28.8764 23.2287C28.3093 22.9548 27.7982 22.6023 27.3153 22.2026C25.7779 20.9111 24.8242 19.0744 24.6629 17.0944C24.5083 15.1329 25.1446 13.1903 26.435 11.685C27.8318 10.0709 29.6745 9.18046 31.8171 9.01619Z" fill="#001331"/>
<path d="M14.7341 12.8017C16.057 12.693 17.7136 13.1425 18.8161 13.8568C20.4492 14.896 21.488 16.4218 21.8759 18.2903C22.4168 20.8959 21.327 23.5814 19.1354 25.138C18.831 25.3542 18.4571 25.4987 18.2278 25.8086C18.0522 26.046 18.1559 26.3953 18.3943 26.5656C18.7248 26.7432 19.197 26.773 19.5672 26.8765C20.0473 27.0106 20.4893 27.1499 20.9336 27.3845C19.8247 28.7316 19.0713 30.3741 18.6763 32.0604C18.3163 33.5976 18.34 34.9942 18.3398 36.5545L18.3411 49.5626L13.1931 49.5631C12.3107 49.5631 11.165 49.5943 10.3016 49.5321C8.60186 49.334 7.18728 48.6754 5.98453 47.4617C5.11263 46.5816 4.49904 45.4866 4.20858 44.2924C3.98881 43.3904 4.01004 42.4836 4.01147 41.5655L4.01198 39.4748C4.01208 37.6865 3.97281 35.8554 4.03594 34.0791C4.1643 30.4671 7.04222 27.266 10.6752 26.7015C11.1347 26.6301 11.9341 26.6719 11.9319 26.0383C11.9287 25.9294 11.8564 25.7208 11.7675 25.6518C11.3589 25.3345 10.9411 25.1162 10.5384 24.7742C9.15171 23.6047 8.2911 21.9452 8.14367 20.1562C7.85813 16.2561 10.7802 13.0538 14.7341 12.8017Z" fill="#001331"/>
<path d="M48.6762 12.8016C50.0729 12.728 51.6334 13.1533 52.7904 13.9213C54.3509 14.9422 55.4255 16.5384 55.7706 18.3479C56.2844 21.0585 55.1094 23.8106 52.7459 25.2874C52.4212 25.4928 52.0504 25.7055 52.1602 26.1502C52.2959 26.7138 53.1296 26.6032 53.5901 26.6821C56.6169 27.2001 59.0709 29.3285 59.7526 32.3063C60.0403 33.5626 59.9983 34.6269 59.9973 35.9088L59.9975 41.6734C59.9974 42.5436 60.0182 43.4057 59.8739 44.2644C59.5303 46.3083 58.1444 48.0369 56.2403 48.9091C55.7011 49.1561 55.2119 49.2926 54.6352 49.4267C53.6518 49.6177 52.0531 49.563 51.0005 49.5624L45.9529 49.561L45.9537 36.0829C45.9536 34.5475 45.9784 33.2046 45.6386 31.6885C45.2462 29.9375 44.6989 28.6409 43.6296 27.2065C44.2837 26.9419 44.9587 26.8012 45.6447 26.6486C46.0154 26.5496 46.1426 26.0116 45.8692 25.7563C45.6601 25.5612 45.3073 25.4147 45.0648 25.2504C39.5565 21.519 41.9054 13.1764 48.6762 12.8016Z" fill="#001331"/>
</g>
</g>
</g>
</g>
</svg>
