<svg width="64" height="64" viewBox="0 0 64 64" fill="none" xmlns="http://www.w3.org/2000/svg">
<rect width="64" height="64" fill="#1E1E1E"/>
<g id="Asset">
<path d="M-158 -245C-158 -246.105 -157.105 -247 -156 -247H996C997.105 -247 998 -246.105 998 -245V563C998 564.105 997.105 565 996 565H-156C-157.105 565 -158 564.105 -158 563V-245Z" fill="white"/>
<g id="IconSimple">
<rect x="-96.5" y="-15.5" width="419" height="95" rx="4.5" stroke="#8A38F5" stroke-dasharray="10 5"/>
<g id="Type=Phonebook">
<g id="Vector">
<path fill-rule="evenodd" clip-rule="evenodd" d="M45.123 9.01357C46.5966 8.985 47.7672 8.9461 48.9497 10.0001C49.7839 10.7487 50.2863 11.8068 50.3441 12.9359C50.3876 13.7135 50.3561 14.8283 50.3557 15.6351L50.3479 49.5981C50.3488 51.3245 50.4429 52.296 49.2259 53.6929C47.698 55.2857 46.0335 54.9792 44.0423 54.9773H19.6063L19.6056 9.01639L44.06 9.01495C44.4097 9.01456 44.7749 9.02033 45.123 9.01357Z" fill="#001331"/>
<path d="M16.343 9.02565C16.8527 8.98015 18.1348 9.01455 18.6944 9.01532L18.6958 54.9779C18.0549 54.9798 16.7147 55.0157 16.1452 54.9452C15.0818 54.8076 14.116 54.2459 13.4605 53.3841C13.0619 52.8664 12.7894 52.2604 12.6653 51.6153C12.5564 51.0315 12.5919 50.1511 12.5934 49.5391L12.594 44.7159C12.5935 44.4206 12.5708 43.9419 12.6045 43.6646C12.6809 43.6101 12.6915 43.6293 12.8033 43.6255L14.3459 43.63C15.2108 43.6322 15.9575 43.7124 16.6166 43.0446C17.4077 42.2427 17.3994 40.9154 16.6074 40.119C15.9044 39.4121 15.0948 39.5304 14.191 39.5333L12.5958 39.5355L12.5962 32.4145C13.2962 32.4094 15.2029 32.4767 15.7551 32.3215C16.0745 32.2327 16.3664 32.0628 16.6033 31.8278C16.9867 31.4517 17.2039 30.9343 17.2053 30.3932C17.2109 29.8174 17.0144 29.3029 16.6116 28.8943C16.3787 28.6563 16.0894 28.4834 15.7716 28.3922C15.2947 28.2591 13.2023 28.3121 12.5964 28.3126L12.5983 21.1768C13.2428 21.1791 15.2364 21.2321 15.7409 21.0976C16.0648 21.0124 16.3618 20.8438 16.603 20.6082C17.4091 19.822 17.4085 18.4659 16.6155 17.6694C16.3815 17.4313 16.0907 17.2589 15.7715 17.1688C15.2971 17.039 13.2097 17.0916 12.5959 17.0917L12.5935 14.4748C12.5933 13.7842 12.5517 12.8762 12.7001 12.2169C12.8401 11.5928 13.1216 11.0106 13.5223 10.5166C14.2555 9.61018 15.2073 9.14228 16.343 9.02565Z" fill="#001331"/>
<path d="M51.2871 33.8794C51.9562 33.872 52.8582 33.7562 53.3992 34.2093C54.0862 34.7844 53.9988 35.5988 53.9995 36.4038L53.9988 40.2024C53.9991 41.0735 54.1033 41.5306 53.5472 42.2517C52.9447 42.8807 52.0793 42.7464 51.2859 42.7393L51.2871 33.8794Z" fill="#001331"/>
<path d="M51.2874 24.0418C51.9347 24.0342 52.8292 23.9249 53.3673 24.3335C54.1036 24.8928 53.9976 25.8483 53.9979 26.6718L53.9969 30.427C53.9972 31.2632 54.0872 31.6838 53.5478 32.378C52.9406 33.0249 52.0932 32.8826 51.2862 32.8755L51.2874 24.0418Z" fill="#001331"/>
<path d="M51.2855 14.179C51.9755 14.1722 52.8371 14.0598 53.3989 14.5252C54.126 15.1275 53.9979 16.0984 53.9985 16.9483L53.9991 19.0438C53.9991 19.876 54.0294 20.8814 53.9556 21.7058C53.9316 21.9759 53.6898 22.3411 53.5125 22.5523L53.4907 22.574C52.8907 23.1667 52.0862 23.0313 51.2855 23.0226V14.179Z" fill="#001331"/>
<path d="M11.0005 29.2514C11.9334 29.2423 12.8664 29.2397 13.7994 29.2436C14.2242 29.2437 14.9453 29.2064 15.3475 29.2682C16.546 29.4525 16.6791 31.1301 15.3617 31.4568L12.4944 31.4597C12.0101 31.4604 10.9183 31.5328 10.5381 31.3049C10.2838 31.1498 10.1029 30.896 10.0372 30.6022C9.88127 29.907 10.3443 29.3772 11.0005 29.2514Z" fill="#001331"/>
<path d="M10.9739 18.0294C12.3731 17.9849 13.8831 18.0419 15.2852 18.0363C16.3678 18.032 16.8598 19.8391 15.3508 20.231L12.5018 20.2352C12.0148 20.2356 10.9372 20.3101 10.546 20.0751C10.2829 19.9168 10.0973 19.6537 10.0342 19.3497C9.89323 18.6698 10.3391 18.1636 10.9739 18.0294Z" fill="#001331"/>
<path d="M10.8318 40.5053C11.2238 40.454 12.1726 40.4912 12.618 40.4845C13.4777 40.5018 14.364 40.4573 15.2212 40.4906C16.48 40.54 16.7395 42.2139 15.449 42.6691C14.9232 42.7297 11.0188 42.7345 10.7058 42.621C10.4296 42.521 10.2075 42.2841 10.0954 42.0122C9.98217 41.7378 9.97639 41.4386 10.0953 41.1658C10.2526 40.8045 10.4811 40.6413 10.8318 40.5053Z" fill="#001331"/>
</g>
</g>
</g>
</g>
</svg>
