<?xml version="1.0" encoding="utf-8"?>
<!-- Generator: Adobe Illustrator 25.4.1, SVG Export Plug-In . SVG Version: 6.00 Build 0)  -->
<svg version="1.1" id="Layer_1" xmlns="http://www.w3.org/2000/svg" xmlns:xlink="http://www.w3.org/1999/xlink" x="0px" y="0px"
	 viewBox="0 0 64 64" style="enable-background:new 0 0 64 64;" xml:space="preserve">
<style type="text/css">
	.st0{fill:#001331;}
</style>
<g id="Asset">
	<g id="IconSimple">
		<g id="Type_x3D_Mail">
			<g id="Vector">
				<path class="st0" d="M5.4,15.7C4.7,15.1,5.2,14,6.1,14l52.3,0c0.9,0,1.3,1.1,0.7,1.7L37.7,36c-0.7,0.6-1.3,1.3-2.1,1.8
					c-1,0.6-2.1,1-3.3,1c-1.3,0-2.6-0.4-3.7-1.1c-0.6-0.4-0.9-0.8-1.5-1.3l-1.5-1.4L5.4,15.7z"/>
				<path class="st0" d="M21.2,34.9c0.4-0.4,1.1-0.4,1.5,0c0.1,0.1,0.1,0.1,0.2,0.1l1.6,1.5c0.7,0.6,1.9,1.8,2.6,2.4
					c1.4,1.1,3.1,1.7,4.9,1.8c2,0.1,4-0.5,5.6-1.8c0.6-0.5,1.3-1.2,1.8-1.7c0.9-0.8,1.7-1.7,2.6-2.5c0.4-0.4,1-0.4,1.4,0L59,50.3
					c0.6,0.6,0.2,1.7-0.7,1.7L6.1,52c-0.9,0-1.3-1.1-0.7-1.7L21.2,34.9z"/>
				<path class="st0" d="M60.3,17.3c0.6-0.6,1.7-0.2,1.7,0.7l0,30c0,0.9-1.1,1.3-1.7,0.7L44.8,33.5c-0.4-0.4-0.4-1,0-1.4L60.3,17.3z
					"/>
				<path class="st0" d="M4.7,17.3C4.1,16.7,3,17.2,3,18.1l0,30c0,0.9,1.1,1.3,1.7,0.7l15.5-15.3c0.4-0.4,0.4-1,0-1.4L4.7,17.3z"/>
			</g>
		</g>
	</g>
</g>
</svg>
