<svg width="64" height="64" viewBox="0 0 64 64" fill="none" xmlns="http://www.w3.org/2000/svg">
<rect width="64" height="64" fill="#1E1E1E"/>
<g id="Asset">
<path d="M-401 -245C-401 -246.105 -400.105 -247 -399 -247H753C754.105 -247 755 -246.105 755 -245V563C755 564.105 754.105 565 753 565H-399C-400.105 565 -401 564.105 -401 563V-245Z" fill="white"/>
<g id="IconSimple">
<rect x="-339.5" y="-15.5" width="419" height="95" rx="4.5" stroke="#8A38F5" stroke-dasharray="10 5"/>
<g id="Type=Mail">
<g id="Vector">
<path d="M5.38542 15.7253C4.73124 15.1029 5.17174 14.0009 6.07469 14.0008L58.4022 14C59.3052 14 59.7457 15.1022 59.0915 15.7246L37.7392 36.0377C37.0744 36.6705 36.4297 37.3438 35.6515 37.8333C34.663 38.4541 33.5196 38.7922 32.3483 38.8103C31.019 38.8337 29.7153 38.4484 28.6176 37.7077C28.0063 37.2946 27.6767 36.9426 27.1506 36.4399L25.6988 35.0514L5.38542 15.7253Z" fill="#001331"/>
<path d="M21.1721 34.9076C21.5744 34.5142 22.2332 34.5195 22.6447 34.9034C22.7008 34.9558 22.7545 35.0061 22.8043 35.0534L24.4177 36.5873C25.0982 37.2332 26.2821 38.4189 26.972 38.9639C28.3615 40.0664 30.0689 40.7058 31.8492 40.7902C33.8586 40.8855 35.8351 40.2596 37.4137 39.0279C37.9861 38.5774 38.7029 37.8551 39.2444 37.3415C40.1124 36.5018 40.9871 35.6691 41.8686 34.8433C42.258 34.4784 42.8655 34.4863 43.247 34.8595L59.0202 50.285C59.661 50.9117 59.2173 52 58.321 52L6.14278 51.9991C5.24642 51.9991 4.80278 50.9107 5.44373 50.284L21.1721 34.9076Z" fill="#001331"/>
<path d="M60.2743 17.3337C60.9107 16.7282 61.9626 17.1786 61.9636 18.057L61.9973 48.0862C61.9983 48.9733 60.9293 49.4224 60.2965 48.8006L44.7527 33.5288C44.3493 33.1325 44.3546 32.4808 44.7642 32.091L60.2743 17.3337Z" fill="#001331"/>
<path d="M4.72568 17.3337C4.08929 16.7282 3.03736 17.1786 3.03637 18.0571L3.00268 48.0862C3.00168 48.9734 4.07066 49.4224 4.70352 48.8006L20.2473 33.5288C20.6507 33.1325 20.6454 32.4808 20.2358 32.091L4.72568 17.3337Z" fill="#001331"/>
</g>
</g>
</g>
</g>
</svg>
