<?xml version="1.0" encoding="utf-8"?>
<!-- Generator: Adobe Illustrator 25.4.1, SVG Export Plug-In . SVG Version: 6.00 Build 0)  -->
<svg version="1.1" id="Layer_1" xmlns="http://www.w3.org/2000/svg" xmlns:xlink="http://www.w3.org/1999/xlink" x="0px" y="0px"
	 viewBox="0 0 178 39" style="enable-background:new 0 0 178 39;" xml:space="preserve">
<style type="text/css">
	.st0{fill:#447ECE;stroke:#000000;}
</style>
<g id="Vector">
	<path class="st0" d="M4,12.2C0.6,15.1-1.5,9,1.3,7c2.7-2,8.6-6.3,17.4-6.9c7.8-0.6,16.1,2,21.7,6.1c-0.2-1.1-1-2.7-1.9-4.7
		c-1.2-2.6,4.5,1,7.5,8.1c3,7.1-4,6.1-7.2,5.6c-4.1-0.7-2.4-3.6-0.5-3.6c3.9,0,1.9-1.8,0.2-3c-1.7-1.1-5.4-2.4-8.2-3
		C22.7,4,15.8,5,12.5,6.6C9.3,8.1,7.1,9.6,4,12.2z"/>
	<path class="st0" d="M42.6,26.6c3.4-2.9,5.4,3.2,2.7,5.2c-2.7,2-8.6,6.3-17.4,6.9c-7.8,0.6-16.1-2-21.7-6.1c0.2,1.1,1,2.7,1.9,4.7
		c1.2,2.6-4.5-1-7.5-8.1c-3-7.1,4-6.1,7.2-5.6c4.1,0.7,2.4,3.6,0.5,3.6c-3.9,0-1.9,1.8-0.2,3c1.7,1.1,5.4,2.4,8.2,3
		c7.5,1.6,14.4,0.5,17.7-1C37.3,30.7,39.5,29.3,42.6,26.6z"/>
	<path class="st0" d="M63.8,20.9C61.9,21.1,65.4,17,69,17c3.5,0,6.1,2.3,6.1,5.7c0,3.4-2.6,5.7-6.1,5.7H55.6V10.4h17.7V15H60.6v8.8
		h8.1c0.9,0,1.5-0.5,1.5-1.5c0-0.9-0.6-1.4-1.5-1.4C68.7,20.9,66.4,20.6,63.8,20.9z"/>
	<path class="st0" d="M94.2,21.2c0,0-6.5,0-8.9,0c-2.4,0-2.6-3.7,0.2-3.7c2.8,0,8.7,0,8.7,0V21.2z M94.5,28.5H76.4V10.4h18.1V15h-13
		v8.8h13V28.5z"/>
	<path class="st0" d="M109,28.5H95.8v-4.5h13.1c0.9,0,1.4-0.5,1.4-1.3c0-0.9-0.5-1.4-1.4-1.4l-9.7,0v-3.7l9.5,0
		c0.8,0,1.3-0.5,1.3-1.3c0-0.8-0.5-1.3-1.3-1.3H95.8v-4.5h13.4c3.9,0,5.5,2.1,5.5,4.8c0,1.9-0.7,3.3-2,3.8c1.5,0.4,2.5,2,2.5,4.2
		C115.2,26.4,113,28.5,109,28.5z"/>
	<path class="st0" d="M138.5,28.5h-5.1l-1.5-2.8l-5-9.7l-6.4,12.5h-5.2l9-16.8c0.5-0.9,1.2-1.3,2.1-1.3h1.1c0.9,0,1.6,0.4,2.1,1.3
		L138.5,28.5z"/>
	<path class="st0" d="M157.9,28.5h-4.8v-7c0,0-1.6,0-4.5,0c-3,0-2.9-4.4,0-4.4c2.9,0,4.5,0,4.5,0v-6.7h4.8V28.5z M144.6,28.5h-4.8
		V10.4h4.8V28.5z"/>
	<path class="st0" d="M171.1,28.5h-4.5V15h-6.2v-4.7h16.8V15h-6.2V28.5z"/>
	<path class="st0" d="M125.3,23.8c-0.7,1.3-0.8,1.8-1,2.6c-0.2,0.9,0.2,1.2,1.2,0c0.4-0.5,1-1.4,1.5-2c0.5,1,1.9,3.1,2.4,2
		c0.4-1.1-1-3.3-1.7-4.1C126.8,21.5,126,22.5,125.3,23.8z"/>
</g>
</svg>
