<svg width="178" height="39" viewBox="0 0 178 39" fill="none" xmlns="http://www.w3.org/2000/svg">
<g id="Vector">
<path d="M3.9741 12.2112C0.621326 15.0827 -1.47189 9.02276 1.25105 7.03906C3.9741 5.05537 9.84392 0.786632 18.6171 0.0907392C26.3743 -0.524562 34.7329 2.04332 40.2952 6.15626C40.094 5.04135 39.2993 3.4245 38.3775 1.43057C37.1903 -1.13778 42.8702 2.45878 45.8579 9.55237C48.846 16.646 41.9077 15.695 38.685 15.1715C34.5951 14.5068 36.2479 11.5465 38.1975 11.5465C42.139 11.5465 40.1259 9.7083 38.3775 8.56573C36.6294 7.42316 32.9845 6.15626 30.1874 5.56414C22.7048 3.9807 15.7669 5.03453 12.5354 6.56119C9.30364 8.08786 7.07872 9.55237 3.9741 12.2112Z" fill="#001331"/>
<path d="M42.614 26.6124C45.9672 23.7408 48.0601 29.8008 45.3371 31.7845C42.6144 33.7683 36.7442 38.0371 27.9713 38.7328C20.2138 39.3482 11.8555 36.7803 6.29288 32.6674C6.49411 33.7823 7.28878 35.3988 8.21063 37.3929C9.39787 39.9616 3.71828 36.3649 0.730218 29.2712C-2.25762 22.1775 4.68082 23.1286 7.90347 23.6521C11.9934 24.3168 10.3403 27.2771 8.39097 27.2771C4.44953 27.2771 6.46259 29.1153 8.21063 30.2579C9.95904 31.4001 13.6039 32.6674 16.401 33.2595C23.8837 34.8429 30.8216 33.7891 34.053 32.2624C37.2845 30.7354 39.5098 29.2712 42.614 26.6124Z" fill="#001331"/>
<path d="M63.8428 20.8892C61.8992 21.1203 65.4232 16.9869 68.9626 16.9869C72.5024 16.9869 75.0588 19.3004 75.0588 22.7286C75.0588 26.1571 72.5024 28.4706 68.9626 28.4706H55.6471V10.3529H73.3733V15.0356H60.5913V23.8158H68.71C69.6087 23.8158 70.1708 23.2863 70.1708 22.3385C70.1708 21.4187 69.6087 20.8892 68.71 20.8892C68.71 20.8892 66.4223 20.5821 63.8428 20.8892Z" fill="#001331"/>
<path d="M94.2386 21.1677C94.2386 21.1677 87.7425 21.1677 85.2991 21.1677C82.8558 21.1677 82.677 17.4327 85.4978 17.4327C88.3185 17.4327 94.2386 17.4327 94.2386 17.4327V21.1677ZM94.4706 28.4706H76.3529V10.3529H94.4416V15.0077H81.4256V23.7879H94.4706V28.4706Z" fill="#001331"/>
<path d="M109.045 28.4706H95.7647V23.9273H108.819C109.723 23.9273 110.26 23.4532 110.26 22.617C110.26 21.7254 109.723 21.1956 108.819 21.1956L99.0765 21.1677V17.4327L108.536 17.4606C109.384 17.4606 109.864 16.9869 109.864 16.1507C109.864 15.3145 109.384 14.8683 108.536 14.8683H95.7647V10.3529H109.186C113.114 10.3529 114.668 12.4154 114.668 15.1193C114.668 16.9869 113.933 18.4084 112.633 18.91C114.103 19.3562 115.176 20.8613 115.176 23.1469C115.176 26.4081 112.972 28.4706 109.045 28.4706Z" fill="#001331"/>
<path d="M138.471 28.4706H133.324L131.862 25.6834L126.85 15.9834L120.404 28.4706H115.176L124.169 11.6907C124.657 10.7987 125.361 10.3529 126.282 10.3529H127.365C128.286 10.3529 128.991 10.7987 129.478 11.6907L138.471 28.4706Z" fill="#001331"/>
<path d="M157.882 28.4706H153.093V21.4465C153.093 21.4465 151.53 21.4465 148.548 21.4465C145.566 21.4465 145.603 17.0148 148.548 17.0148C151.492 17.0148 153.093 17.0148 153.093 17.0148V10.3529H157.882V28.4706ZM144.554 28.4706H139.765V10.3529H144.554V28.4706Z" fill="#001331"/>
<path d="M171.137 28.4706H166.628V15.0077H160.471V10.3529H177.294V15.0077H171.137V28.4706Z" fill="#001331"/>
<path d="M125.327 23.7731C124.633 25.074 124.531 25.5243 124.299 26.3915C124.068 27.2584 124.461 27.6037 125.515 26.3915C125.914 25.9325 126.553 24.9702 126.976 24.3902C127.478 25.4018 128.915 27.4422 129.335 26.3915C129.755 25.3408 128.351 23.0893 127.599 22.2887C126.846 21.4882 126.021 22.4722 125.327 23.7731Z" fill="#001331"/>
</g>
</svg>
